<svg xmlns="http://www.w3.org/2000/svg" viewBox="0 0 512 512"><!--!Font Awesome Free 6.5.2 by @fontawesome - https://fontawesome.com License - https://fontawesome.com/license/free Copyright 2024 Fonticons, Inc.--><path fill="#B197FC" d="M464 480H48c-26.5 0-48-21.5-48-48V80c0-26.5 21.5-48 48-48h416c26.5 0 48 21.5 48 48v352c0 26.5-21.5 48-48 48zM128 120c-22.1 0-40 17.9-40 40s17.9 40 40 40 40-17.9 40-40-17.9-40-40-40zm0 96c-22.1 0-40 17.9-40 40s17.9 40 40 40 40-17.9 40-40-17.9-40-40-40zm0 96c-22.1 0-40 17.9-40 40s17.9 40 40 40 40-17.9 40-40-17.9-40-40-40zm288-136v-32c0-6.6-5.4-12-12-12H204c-6.6 0-12 5.4-12 12v32c0 6.6 5.4 12 12 12h200c6.6 0 12-5.4 12-12zm0 96v-32c0-6.6-5.4-12-12-12H204c-6.6 0-12 5.4-12 12v32c0 6.6 5.4 12 12 12h200c6.6 0 12-5.4 12-12zm0 96v-32c0-6.6-5.4-12-12-12H204c-6.6 0-12 5.4-12 12v32c0 6.6 5.4 12 12 12h200c6.6 0 12-5.4 12-12z"/></svg>